<?xml version="1.0" encoding="utf-8"?>
<!-- Generator: Adobe Illustrator 16.0.4, SVG Export Plug-In . SVG Version: 6.00 Build 0)  -->
<!DOCTYPE svg PUBLIC "-//W3C//DTD SVG 1.1//EN" "http://www.w3.org/Graphics/SVG/1.1/DTD/svg11.dtd">
<svg version="1.1" id="Layer_1" xmlns="http://www.w3.org/2000/svg" xmlns:xlink="http://www.w3.org/1999/xlink" x="0px" y="0px"
	 width="412.001px" height="362.563px" viewBox="50 74.719 412.001 362.563" enable-background="new 50 74.719 412.001 362.563"
	 xml:space="preserve">
<g>
	<g>
		<path d="M222.012,293.484v25.211L132.4,279.85v-21.557l89.612-38.838v25.388L159.573,268.9L222.012,293.484z"/>
		<path d="M277.425,218.919l-24.95,102.713c-0.83,3.38-1.554,6.056-2.178,8.019c-0.624,1.961-1.569,3.494-2.847,4.58
			c-1.277,1.103-3.133,1.649-5.572,1.649c-6.05,0-9.083-2.62-9.083-7.835c0-1.368,0.593-4.783,1.78-10.245l24.854-102.713
			c1.307-5.461,2.555-9.204,3.741-11.22c1.187-2.019,3.5-3.03,6.95-3.03c2.968,0,5.24,0.714,6.811,2.14
			c1.573,1.426,2.363,3.387,2.363,5.879C279.296,210.697,278.667,214.051,277.425,218.919z"/>
		<path d="M379.599,279.85l-89.61,39.021v-25.212l62.625-24.583l-62.625-24.234v-25.031l89.61,38.658V279.85z"/>
	</g>
	<path d="M437.281,74.719H74.719C61.069,74.719,50,85.791,50,99.441v313.122c0,13.645,11.069,24.72,24.719,24.72h362.563
		c13.653,0,24.719-11.075,24.719-24.72V99.441C462,85.786,450.935,74.719,437.281,74.719z M375.481,91.2
		c9.081,0,16.479,7.39,16.479,16.481c0,9.088-7.398,16.479-16.479,16.479c-9.09,0-16.481-7.391-16.481-16.479
		C359,98.591,366.392,91.2,375.481,91.2z M330.162,91.2c9.083,0,16.476,7.39,16.476,16.481c0,9.088-7.393,16.479-16.476,16.479
		c-9.088,0-16.481-7.391-16.481-16.479C313.68,98.591,321.074,91.2,330.162,91.2z M437.281,412.562H74.719V140.641h362.563
		L437.281,412.562L437.281,412.562z M420.8,124.16c-9.083,0-16.479-7.391-16.479-16.479c0-9.091,7.396-16.481,16.479-16.481
		s16.481,7.39,16.481,16.481C437.281,116.769,429.883,124.16,420.8,124.16z"/>
</g>
</svg>
