<?xml version="1.0" encoding="utf-8"?>
<!-- Generator: Adobe Illustrator 16.0.4, SVG Export Plug-In . SVG Version: 6.00 Build 0)  -->
<!DOCTYPE svg PUBLIC "-//W3C//DTD SVG 1.1//EN" "http://www.w3.org/Graphics/SVG/1.1/DTD/svg11.dtd">
<svg version="1.1"
	 id="svg2985" xmlns:rdf="http://www.w3.org/1999/02/22-rdf-syntax-ns#" xmlns:cc="http://creativecommons.org/ns#" xmlns:dc="http://purl.org/dc/elements/1.1/" xmlns:svg="http://www.w3.org/2000/svg" xmlns:inkscape="http://www.inkscape.org/namespaces/inkscape" xmlns:sodipodi="http://sodipodi.sourceforge.net/DTD/sodipodi-0.dtd" xmlns:ns1="http://sozi.baierouge.fr"
	 xmlns="http://www.w3.org/2000/svg" xmlns:xlink="http://www.w3.org/1999/xlink" x="0px" y="0px" width="566.562px"
	 height="275.763px" viewBox="34.012 260.166 566.562 275.763" enable-background="new 34.012 260.166 566.562 275.763"
	 xml:space="preserve">
<g id="layer1" transform="translate(0,-100)">
	<path id="path3004" fill="#666666" stroke="#FFFFFF" stroke-width="0.9808" d="M367.667,421.757
		c-120.848-34.586-206.413-19.508-282.606,8.751c-70.927,41.146-62.584,80.356,3.126,118.169
		c106.228,36.184,213.917,45.988,325.125-7.503c64.997-54.303,26.935-89.979-45.643-119.416L367.667,421.757z"/>
	<path id="path3058" fill="#1A1A1A" stroke="#FFFFFF" stroke-width="0.9808" d="M367.667,421.757
		c-120.848-34.586-206.413-19.508-282.606,8.751c-70.927,41.146-61.258,83.454,4.452,121.268
		c106.228,36.184,212.586,42.894,323.794-10.598c64.997-54.303,26.935-89.979-45.643-119.417L367.667,421.757z"/>
	<path id="path3010" fill="#1A1A1A" d="M410.499,441.456l17.194-10.004c51.959-28.302,106.679-50.397,161.935-71.277
		c7.908,0.533,11.888,4.995,10.629,14.693c-5.67,5.839-13.482,6.68-16.881,17.819c-41.772,28.509-72.201,36.221-104.415,47.205
		c-5.347,1.427-8.359,5.188-11.254,9.066l-10.629,4.377l-20.633,11.254L410.499,441.456z"/>
	<path id="path3014" fill="#B3B3B3" d="M444.121,422.767c-5.503,2.835-10.992,5.709-16.437,8.675l-17.187,10.012l25.955,23.142
		l20.633-11.254l1.829-0.75C460.498,439.622,455.91,429.525,444.121,422.767L444.121,422.767z"/>
	
		<radialGradient id="path3018_1_" cx="645.0645" cy="748.0166" r="110.17" gradientTransform="matrix(1.0113 -0.4401 -0.0451 -0.1036 -138.6668 773.3233)" gradientUnits="userSpaceOnUse">
		<stop  offset="0" style="stop-color:#FFFFFF"/>
		<stop  offset="1" style="stop-color:#FFFFFF;stop-opacity:0"/>
	</radialGradient>
	<path id="path3018" fill="url(#path3018_1_)" d="M586.25,361.452c-54.109,20.505-107.666,42.263-158.569,69.988l-0.328,0.188
		c4.066,4.438,9.402,10.457,9.402,10.457c49.604-27.392,100.36-49.075,151.63-68.158c7.541-6.797,4.065-10.073-2.133-12.473
		L586.25,361.452z"/>
	
		<linearGradient id="path3012_1_" gradientUnits="userSpaceOnUse" x1="667.1787" y1="765.918" x2="701.948" y2="711.1191" gradientTransform="matrix(0.7503 0 0 -0.7503 0.7792 953.0827)">
		<stop  offset="0" style="stop-color:#FFFFFF"/>
		<stop  offset="1" style="stop-color:#000000"/>
	</linearGradient>
	<path id="path3012" opacity="0.35" fill="url(#path3012_1_)" enable-background="new    " d="M434.252,439.268
		c2.85,2.905,6.663,4.366,7.34,10.531l158.982-74.312l-0.941-8.751c-54.889,22.544-109.678,44.37-165.378,72.53L434.252,439.268z"/>
	<path id="path3016" fill="#B3B3B3" d="M589.624,360.167c-6.657,2.516-13.315,5.061-19.953,7.62
		c9.254,5.567,14.123,13.307,14.186,23.47c3.612-9.784,10.974-10.813,16.39-16.39C601.504,365.168,597.532,360.699,589.624,360.167
		L589.624,360.167z"/>
	
		<linearGradient id="path3045_1_" gradientUnits="userSpaceOnUse" x1="787.7275" y1="765.6348" x2="780.0175" y2="775.4247" gradientTransform="matrix(0.7503 0 0 -0.7503 0.7792 953.0827)">
		<stop  offset="0" style="stop-color:#333333"/>
		<stop  offset="1" style="stop-color:#333333;stop-opacity:0"/>
	</linearGradient>
	<path id="path3045" fill="url(#path3045_1_)" d="M599.103,365.231l-20.704,9.988c3.567,4.472,5.425,9.795,5.464,16.038
		c3.612-9.784,10.974-10.812,16.389-16.39C600.788,370.732,600.367,367.564,599.103,365.231L599.103,365.231z"/>
	<path id="path3008" d="M417.042,541.494c0,36.432-76.558,65.964-170.997,65.964c-94.438,0-170.997-29.532-170.997-65.964
		c0-36.431,76.558-65.963,170.997-65.963C340.484,475.531,417.042,505.063,417.042,541.494z"/>
	
		<radialGradient id="path3068_1_" cx="355.4287" cy="581.0146" r="190.83" gradientTransform="matrix(0.8956 -0.0293 -0.0718 -2.1967 -30.5397 1723.8943)" gradientUnits="userSpaceOnUse">
		<stop  offset="0" style="stop-color:#201F25"/>
		<stop  offset="1" style="stop-color:#ECECEC"/>
	</radialGradient>
	<path id="path3068" opacity="0.55" fill="url(#path3068_1_)" enable-background="new    " d="M417.042,541.494
		c0,36.432-76.558,65.964-170.997,65.964c-94.438,0-170.997-29.532-170.997-65.964c0-36.431,76.558-65.963,170.997-65.963
		C340.484,475.531,417.042,505.063,417.042,541.494z"/>
	<path id="path3102" opacity="0.55" enable-background="new    " d="M414.934,534.281c0,32.356-75.408,58.587-168.428,58.587
		c-93.02,0-168.427-26.23-168.427-58.587s75.407-58.586,168.427-58.586C339.525,475.695,414.934,501.925,414.934,534.281z"/>
	<path id="path3006" d="M35.902,486.942c46.682,120.006,414.225,99.802,409.841-3.595l1.251,5.549
		c27.301,191.961-426.832,197.944-412.657,6.252L35.902,486.942z"/>
	<path id="path3092" opacity="0.55" fill="none" stroke="#FFFFFF" stroke-width="2.5301" enable-background="new    " d="
		M444.562,486.776c0.715,46.959-89.96,85.27-202.527,85.568c-112.568,0.299-204.402-37.528-205.117-84.487
		c-0.005-0.36-0.005-0.72,0-1.081c-0.715-46.959,89.959-85.269,202.527-85.567c112.568-0.298,204.402,37.528,205.117,84.487
		C444.566,486.056,444.566,486.416,444.562,486.776z"/>
	
		<linearGradient id="path3080_1_" gradientUnits="userSpaceOnUse" x1="325.6777" y1="415.5688" x2="318.1777" y2="669.7383" gradientTransform="matrix(0.7503 0 0 -0.7503 0.7792 953.0827)">
		<stop  offset="0" style="stop-color:#E6E6E6;stop-opacity:0"/>
		<stop  offset="1" style="stop-color:#E6E6E6"/>
	</linearGradient>
	<path id="path3080" fill="url(#path3080_1_)" d="M35.902,486.942c31.516,126.898,414.225,99.802,409.841-3.595l1.251,5.549
		c27.301,191.961-426.832,197.944-412.657,6.252L35.902,486.942z"/>
</g>
</svg>
