<?xml version="1.0" encoding="utf-8"?>
<!-- Generator: Adobe Illustrator 16.0.4, SVG Export Plug-In . SVG Version: 6.00 Build 0)  -->
<!DOCTYPE svg PUBLIC "-//W3C//DTD SVG 1.1//EN" "http://www.w3.org/Graphics/SVG/1.1/DTD/svg11.dtd">
<svg version="1.1"
	 id="svg2985" xmlns:svg="http://www.w3.org/2000/svg" xmlns:rdf="http://www.w3.org/1999/02/22-rdf-syntax-ns#" xmlns:dc="http://purl.org/dc/elements/1.1/" xmlns:sodipodi="http://sodipodi.sourceforge.net/DTD/sodipodi-0.dtd" xmlns:ns1="http://sozi.baierouge.fr" xmlns:inkscape="http://www.inkscape.org/namespaces/inkscape" xmlns:cc="http://creativecommons.org/ns#"
	 xmlns="http://www.w3.org/2000/svg" xmlns:xlink="http://www.w3.org/1999/xlink" x="0px" y="0px" width="523px" height="523px"
	 viewBox="-24.219 -148.919 523 523" enable-background="new -24.219 -148.919 523 523" xml:space="preserve">
<circle fill="#E0E0D2" cx="237.281" cy="112.581" r="261.5"/>
<g id="layer1" transform="translate(0,-100)">
	<path id="path3004" fill="#666666" stroke="#FFFFFF" stroke-width="0.9808" d="M288.284,165.626
		c-74.377-21.286-127.039-12.006-173.933,5.386c-43.653,25.324-38.518,49.456,1.924,72.729
		c65.379,22.27,131.657,28.303,200.103-4.619c40.002-33.42,16.577-55.377-28.092-73.496H288.284z"/>
	<path id="path3058" fill="#1A1A1A" stroke="#FFFFFF" stroke-width="0.9808" d="M288.284,165.626
		c-74.377-21.286-127.039-12.006-173.933,5.386c-43.653,25.324-37.702,51.363,2.74,74.635c65.379,22.27,130.839,26.4,199.282-6.521
		c40.003-33.421,16.578-55.379-28.092-73.498L288.284,165.626z"/>
	<path id="path3010" fill="#1A1A1A" d="M314.646,177.75l10.583-6.157c31.979-17.418,65.656-31.017,99.664-43.868
		c4.867,0.328,7.316,3.074,6.542,9.043c-3.489,3.594-8.297,4.111-10.39,10.967c-25.709,17.546-44.437,22.292-64.264,29.053
		c-3.29,0.878-5.145,3.192-6.926,5.579l-6.542,2.694l-12.698,6.926L314.646,177.75z"/>
	<path id="path3014" fill="#B3B3B3" d="M335.339,166.248c-3.387,1.745-6.765,3.514-10.116,5.339l-10.578,6.162l15.975,14.243
		l12.698-6.927l1.126-0.462C345.418,176.621,342.595,170.407,335.339,166.248L335.339,166.248z"/>
	
		<radialGradient id="path3018_1_" cx="537.5244" cy="-425.2781" r="67.8053" gradientTransform="matrix(1.0113 -0.4401 0.0451 0.1036 -167.0265 440.2047)" gradientUnits="userSpaceOnUse">
		<stop  offset="0" style="stop-color:#FFFFFF"/>
		<stop  offset="1" style="stop-color:#FFFFFF;stop-opacity:0"/>
	</radialGradient>
	<path id="path3018" fill="url(#path3018_1_)" d="M422.813,128.511c-33.302,12.62-66.264,26.011-97.593,43.075l-0.202,0.115
		c2.503,2.731,5.787,6.436,5.787,6.436c30.529-16.858,61.768-30.204,93.322-41.948c4.641-4.184,2.502-6.199-1.312-7.677
		L422.813,128.511z"/>
	
		<linearGradient id="path3012_1_" gradientUnits="userSpaceOnUse" x1="500.2383" y1="-107.3323" x2="521.6378" y2="-73.605" gradientTransform="matrix(0.7503 0 0 0.7503 -4.7687 219.4881)">
		<stop  offset="0" style="stop-color:#FFFFFF"/>
		<stop  offset="1" style="stop-color:#000000"/>
	</linearGradient>
	<path id="path3012" opacity="0.35" fill="url(#path3012_1_)" enable-background="new    " d="M329.265,176.404
		c1.754,1.788,4.102,2.688,4.518,6.481l97.848-45.736l-0.579-5.386c-33.782,13.875-67.503,27.308-101.784,44.64L329.265,176.404z"/>
	<path id="path3016" fill="#B3B3B3" d="M424.891,127.72c-4.098,1.549-8.195,3.115-12.28,4.69c5.695,3.426,8.691,8.189,8.73,14.445
		c2.223-6.021,6.754-6.655,10.088-10.087C432.202,130.798,429.758,128.048,424.891,127.72L424.891,127.72z"/>
	
		<linearGradient id="path3045_1_" gradientUnits="userSpaceOnUse" x1="574.4316" y1="-107.1545" x2="569.6862" y2="-113.1802" gradientTransform="matrix(0.7503 0 0 0.7503 -4.7687 219.4881)">
		<stop  offset="0" style="stop-color:#333333"/>
		<stop  offset="1" style="stop-color:#333333;stop-opacity:0"/>
	</linearGradient>
	<path id="path3045" fill="url(#path3045_1_)" d="M430.725,130.837l-12.742,6.146c2.194,2.753,3.339,6.029,3.362,9.871
		c2.223-6.021,6.754-6.654,10.087-10.087C431.762,134.222,431.503,132.273,430.725,130.837L430.725,130.837z"/>
	<path id="path3008" d="M318.673,239.319c0,22.424-47.118,40.6-105.242,40.6c-58.123,0-105.242-18.176-105.242-40.6
		c0-22.421,47.119-40.597,105.242-40.597C271.555,198.722,318.673,216.898,318.673,239.319z"/>
	
		<radialGradient id="path3068_1_" cx="321.7666" cy="51.1936" r="117.4496" gradientTransform="matrix(0.8956 -0.0293 0.0718 2.1967 -78.4078 72.079)" gradientUnits="userSpaceOnUse">
		<stop  offset="0" style="stop-color:#201F25"/>
		<stop  offset="1" style="stop-color:#ECECEC"/>
	</radialGradient>
	<path id="path3068" opacity="0.55" fill="url(#path3068_1_)" enable-background="new    " d="M318.673,239.319
		c0,22.424-47.118,40.6-105.242,40.6c-58.123,0-105.242-18.176-105.242-40.6c0-22.421,47.119-40.597,105.242-40.597
		C271.555,198.722,318.673,216.898,318.673,239.319z"/>
	<path id="path3102" opacity="0.55" enable-background="new    " d="M317.375,234.88c0,19.914-46.41,36.058-103.66,36.058
		c-57.251,0-103.661-16.143-103.661-36.058c0-19.914,46.41-36.057,103.661-36.057C270.965,198.823,317.375,214.966,317.375,234.88z"
		/>
	<path id="path3006" d="M84.096,205.745c28.731,73.859,254.939,61.423,252.241-2.213l0.771,3.416
		c16.803,118.145-262.699,121.827-253.975,3.848L84.096,205.745z"/>
	<path id="path3092" opacity="0.55" fill="none" stroke="#FFFFFF" stroke-width="2.5301" enable-background="new    " d="
		M335.61,205.643c0.44,28.901-55.367,52.481-124.647,52.665c-69.281,0.184-125.802-23.097-126.242-51.999
		c-0.003-0.222-0.003-0.443,0-0.666c-0.44-28.901,55.366-52.48,124.648-52.663c69.28-0.184,125.801,23.098,126.241,51.999
		C335.613,205.2,335.613,205.421,335.61,205.643z"/>
	
		<linearGradient id="path3080_1_" gradientUnits="userSpaceOnUse" x1="290.0645" y1="108.2864" x2="285.4485" y2="-48.1459" gradientTransform="matrix(0.7503 0 0 0.7503 -4.7687 219.4881)">
		<stop  offset="0" style="stop-color:#E6E6E6;stop-opacity:0"/>
		<stop  offset="1" style="stop-color:#E6E6E6"/>
	</linearGradient>
	<path id="path3080" fill="url(#path3080_1_)" d="M84.096,205.745c19.397,78.101,254.939,61.423,252.241-2.213l0.771,3.416
		c16.803,118.145-262.699,121.827-253.975,3.848L84.096,205.745z"/>
</g>
</svg>
