<?xml version="1.0" encoding="utf-8"?>
<!-- Generator: Adobe Illustrator 16.0.4, SVG Export Plug-In . SVG Version: 6.00 Build 0)  -->
<!DOCTYPE svg PUBLIC "-//W3C//DTD SVG 1.1//EN" "http://www.w3.org/Graphics/SVG/1.1/DTD/svg11.dtd">
<svg version="1.1"
	 id="svg14662" sodipodi:docname="Nuvola apps user with flash.svg" inkscape:output_extension="org.inkscape.output.svg.inkscape" sodipodi:version="0.32" inkscape:version="0.48.5 r10040" xmlns:inkscape="http://www.inkscape.org/namespaces/inkscape" xmlns:sodipodi="http://sodipodi.sourceforge.net/DTD/sodipodi-0.dtd" xmlns:dc="http://purl.org/dc/elements/1.1/" xmlns:svg="http://www.w3.org/2000/svg" xmlns:cc="http://creativecommons.org/ns#" xmlns:rdf="http://www.w3.org/1999/02/22-rdf-syntax-ns#"
	 xmlns="http://www.w3.org/2000/svg" xmlns:xlink="http://www.w3.org/1999/xlink" x="0px" y="0px" width="151.995px"
	 height="152.028px" viewBox="77.57 44.691 151.995 152.028" enable-background="new 77.57 44.691 151.995 152.028"
	 xml:space="preserve">
<sodipodi:namedview  inkscape:pageopacity="0.0" inkscape:window-height="746" inkscape:window-width="1304" inkscape:window-maximized="1" inkscape:pageshadow="2" inkscape:window-x="54" inkscape:window-y="-8" inkscape:current-layer="layer1" id="base" pagecolor="#ffffff" objecttolerance="10.0" guidetolerance="10.0" inkscape:cy="69.021035" borderopacity="1.0" inkscape:zoom="3.609375" gridtolerance="10.0" bordercolor="#666666" inkscape:cx="37.354997" showgrid="false">
	</sodipodi:namedview>
<defs>
	
	
		<inkscape:perspective  inkscape:persp3d-origin="64 : 42.666667 : 1" id="perspective2510" inkscape:vp_z="128 : 64 : 1" inkscape:vp_x="0 : 64 : 1" inkscape:vp_y="0 : 1000 : 0" sodipodi:type="inkscape:persp3d">
		</inkscape:perspective>
	
		<inkscape:perspective  inkscape:persp3d-origin="850 : 566.66667 : 1" id="perspective2487" inkscape:vp_z="1700 : 850 : 1" inkscape:vp_x="0 : 850 : 1" inkscape:vp_y="0 : 1000 : 0" sodipodi:type="inkscape:persp3d">
		</inkscape:perspective>
</defs>
<g id="layer1" transform="translate(-447.42856,-636.93359)">
	<g id="g3700" transform="matrix(0.64274476,0,0,0.5950171,507.97257,636.94774)">
		<g id="layer4">
		</g>
		<g id="layer3">
		</g>
		<g id="g3704">
		</g>
		<g id="layer2">
			<g id="g8223" transform="translate(-108.55604,2.6472477)">
				
					<path id="path7324" inkscape:connector-curvature="0" fill="none" stroke="#000000" stroke-width="11.6738" stroke-linecap="round" stroke-linejoin="round" stroke-opacity="0.502" d="
					M242.634,155.553h33.47l-18.971,31.028h19.32l-17.085,25.76l14.604,0.125l-38.662,52.211l14.01-45.323H236.4l14.805-27.07
					l-19.029-0.123L242.634,155.553z"/>
				
					<linearGradient id="path4625_1_" gradientUnits="userSpaceOnUse" x1="1249.3782" y1="2810.4624" x2="1249.3782" y2="2925.7346" gradientTransform="matrix(0.4242 0 0 0.3636 -276.7132 -871.8506)">
					<stop  offset="0" style="stop-color:#660000"/>
					<stop  offset="1" style="stop-color:#CC4D00"/>
				</linearGradient>
				
					<path id="path4625" inkscape:connector-curvature="0" fill="none" stroke="url(#path4625_1_)" stroke-width="11.6738" stroke-linecap="round" stroke-linejoin="round" d="
					M241.608,154.526h33.469l-18.971,31.028h19.32l-17.085,25.76l14.604,0.125l-38.66,52.209l14.009-45.323h-12.92l14.804-27.07
					l-19.029-0.124L241.608,154.526z"/>
				
					<linearGradient id="path3727_1_" gradientUnits="userSpaceOnUse" x1="1248.7979" y1="2821.585" x2="1248.7979" y2="2931.8564" gradientTransform="matrix(0.4242 0 0 0.3636 -276.467 -873.3294)">
					<stop  offset="0" style="stop-color:#F76701"/>
					<stop  offset="0.5" style="stop-color:#FFFF33"/>
					<stop  offset="1" style="stop-color:#FF9600"/>
				</linearGradient>
				
					<path id="path3727" inkscape:connector-curvature="0" fill="none" stroke="url(#path3727_1_)" stroke-width="5.1883" stroke-linecap="round" stroke-linejoin="round" d="
					M241.608,154.526h33.469l-18.971,31.028h19.32l-17.085,25.76l14.604,0.125l-38.66,52.209l14.009-45.323h-12.92l14.804-27.07
					l-19.029-0.124L241.608,154.526z"/>
				
					<linearGradient id="path1932_1_" gradientUnits="userSpaceOnUse" x1="1020.8328" y1="3075.1704" x2="1020.8328" y2="2965.7205" gradientTransform="matrix(0.4242 0 0 0.3636 -179.6837 -854.0596)">
					<stop  offset="0" style="stop-color:#FF9600"/>
					<stop  offset="0.5" style="stop-color:#FFFF33"/>
					<stop  offset="1" style="stop-color:#FFFFFF"/>
				</linearGradient>
				<path id="path1932" inkscape:connector-curvature="0" fill="url(#path1932_1_)" d="M241.687,154.81h33.469l-18.971,31.028h19.32
					l-17.084,25.76l14.604,0.126l-38.659,52.209l14.009-45.324h-12.922l14.805-27.07l-19.03-0.122L241.687,154.81z"/>
			</g>
		</g>
	</g>
</g>
<path fill="#BF0000" d="M116.724,187.152c0.135,0.067,0.237,0.168,0.374,0.236c3.697,2.037,7.633,3.633,11.67,5.023
	c0.61,0.203,1.221,0.404,1.833,0.611c7.261,2.306,14.927,3.695,22.968,3.695c41.969,0,75.997-34.029,75.997-75.997
	c0-28.601-15.81-53.505-39.187-66.463c-0.135-0.068-0.237-0.136-0.338-0.205c-3.699-2.036-7.636-3.63-11.672-5.021
	c-0.611-0.203-1.223-0.406-1.834-0.61c-7.259-2.341-14.959-3.732-22.968-3.732c-41.967,0-75.997,34.028-75.997,75.997
	C77.571,149.29,93.381,174.158,116.724,187.152z M106.816,86.966l18.456,18.457l12.316-13.742l-17.778-17.777
	c9.5-6.854,21.07-11.061,33.725-11.061c3.154,0,6.209,0.306,9.229,0.814c3.323,0.543,6.546,1.392,9.668,2.478
	c0.612,0.203,1.255,0.406,1.899,0.646c2.103,0.812,4.141,1.695,6.106,2.748c18.39,9.669,30.942,28.939,30.942,51.162
	c0,12.621-4.207,24.189-11.096,33.725l-18.455-18.459l-12.315,13.708l17.778,17.777c-9.5,6.888-21.104,11.095-33.726,11.095
	c-3.155,0-6.241-0.308-9.229-0.815c-3.324-0.541-6.548-1.39-9.669-2.477c-0.645-0.202-1.289-0.408-1.9-0.645
	c-2.206-0.848-4.377-1.799-6.446-2.918c-18.183-9.736-30.567-28.906-30.567-50.993C95.756,108.068,99.963,96.499,106.816,86.966z"/>
</svg>
